<?xml version="1.0" encoding="UTF-8" standalone="no"?>
<!-- Created with Inkscape (http://www.inkscape.org/) -->

<svg
   width="960"
   height="304"
   viewBox="0 0 254 80.433332"
   version="1.1"
   id="svg5"
   xml:space="preserve"
   inkscape:version="1.3.2 (091e20e, 2023-11-25, custom)"
   sodipodi:docname="FreeTableTemplate.svg"
   inkscape:export-filename="FreeTableTemplate.png"
   inkscape:export-xdpi="96"
   inkscape:export-ydpi="96"
   xmlns:inkscape="http://www.inkscape.org/namespaces/inkscape"
   xmlns:sodipodi="http://sodipodi.sourceforge.net/DTD/sodipodi-0.dtd"
   xmlns="http://www.w3.org/2000/svg"
   xmlns:svg="http://www.w3.org/2000/svg"><sodipodi:namedview
     id="namedview7"
     pagecolor="#ffffff"
     bordercolor="#000000"
     borderopacity="0.25"
     inkscape:showpageshadow="2"
     inkscape:pageopacity="0.0"
     inkscape:pagecheckerboard="0"
     inkscape:deskcolor="#d1d1d1"
     inkscape:document-units="mm"
     showgrid="false"
     inkscape:zoom="0.5946522"
     inkscape:cx="478.43093"
     inkscape:cy="76.515315"
     inkscape:window-width="1920"
     inkscape:window-height="1017"
     inkscape:window-x="3832"
     inkscape:window-y="-8"
     inkscape:window-maximized="1"
     inkscape:current-layer="layer1" /><defs
     id="defs2" /><g
     inkscape:label="Layer 1"
     inkscape:groupmode="layer"
     id="layer1"><text
       xml:space="preserve"
       style="font-style:normal;font-variant:normal;font-weight:normal;font-stretch:normal;font-size:10.8077px;font-family:'Arial Black';-inkscape-font-specification:'Arial Black, Normal';font-variant-ligatures:normal;font-variant-caps:normal;font-variant-numeric:normal;font-variant-east-asian:normal;fill:#000000;stroke-width:0.900644"
       x="107.46448"
       y="14.769596"
       id="text380"><tspan
         sodipodi:role="line"
         id="tspan378"
         style="font-style:normal;font-variant:normal;font-weight:normal;font-stretch:normal;font-size:10.8077px;font-family:'Arial Black';-inkscape-font-specification:'Arial Black, Normal';font-variant-ligatures:normal;font-variant-caps:normal;font-variant-numeric:normal;font-variant-east-asian:normal;stroke-width:0.900644"
         x="107.46448"
         y="14.769596">FREE TABLE</tspan></text><rect
       style="fill:#000000;stroke-width:0.270567"
       id="rect484"
       width="169.03296"
       height="1.8200049"
       x="64.781929"
       y="16.64492" /><path
       sodipodi:type="star"
       style="fill:#333333;stroke-width:0.264583"
       id="path675"
       inkscape:flatsided="true"
       sodipodi:sides="3"
       sodipodi:cx="66.699158"
       sodipodi:cy="112.31885"
       sodipodi:r1="25.654444"
       sodipodi:r2="12.827223"
       sodipodi:arg1="-0.52359878"
       sodipodi:arg2="0.52359877"
       inkscape:rounded="0"
       inkscape:randomized="0"
       d="m 88.916558,99.491626 -22.2174,38.481664 -22.2174,-38.481664 z"
       inkscape:transform-center-x="-0.62409155"
       inkscape:transform-center-y="0.31377105"
       transform="matrix(-0.37863872,0,0,-0.37863872,104.37449,113.27713)" /><text
       xml:space="preserve"
       style="font-style:normal;font-variant:normal;font-weight:normal;font-stretch:normal;font-size:10.9923px;font-family:'Arial Black';-inkscape-font-specification:'Arial Black, Normal';font-variant-ligatures:normal;font-variant-caps:normal;font-variant-numeric:normal;font-variant-east-asian:normal;fill:#ffffff;stroke-width:0.220193"
       x="77.348923"
       y="74.079842"
       id="text731"><tspan
         sodipodi:role="line"
         id="tspan729"
         style="fill:#ffffff;stroke-width:0.220193"
         x="77.348923"
         y="74.079842">!</tspan></text><g
       id="g17"
       transform="matrix(0,-0.57192839,0.57192839,0,286.84735,102.07125)"><path
         id="path1"
         d="M 48.611742,-70.563249 46.1666,-80.28177 v 10.529798 c 0,0.582715 -0.12993,1.019841 -0.39017,1.311199 -0.260055,0.291363 -0.605171,0.436757 -1.035313,0.436757 -0.4162,0 -0.756212,-0.144077 -1.019655,-0.431664 -0.263639,-0.287774 -0.395459,-0.726789 -0.395459,-1.316292 v -12.06975 c 0,-0.665878 0.173313,-1.115079 0.520285,-1.34741 0.34681,-0.232334 0.815057,-0.348688 1.404754,-0.348688 h 0.957234 c 0.575734,0 0.993816,0.05205 1.253681,0.156145 0.260245,0.104096 0.452595,0.29136 0.577632,0.561786 0.125029,0.270423 0.267023,0.711137 0.426564,1.321384 l 2.216207,8.355271 2.216205,-8.355271 c 0.159534,-0.610247 0.30173,-1.050961 0.426573,-1.321384 0.124843,-0.270426 0.317379,-0.457878 0.577617,-0.561786 0.260051,-0.104095 0.677955,-0.156145 1.253689,-0.156145 h 0.957234 c 0.589506,0 1.05775,0.116168 1.404739,0.348688 0.346802,0.232331 0.520297,0.681532 0.520297,1.34741 v 12.06975 c 0,0.582715 -0.130119,1.019841 -0.39017,1.311199 -0.260246,0.291363 -0.608744,0.436757 -1.045682,0.436757 -0.409406,0 -0.745842,-0.145394 -1.009287,-0.436757 -0.263638,-0.291358 -0.395453,-0.728484 -0.395453,-1.311199 V -80.28177 l -2.445145,9.718521 c -0.159729,0.631181 -0.289661,1.094335 -0.39017,1.388896 -0.100708,0.294942 -0.286267,0.563673 -0.556691,0.806375 -0.270425,0.242702 -0.645139,0.364146 -1.123756,0.364146 -0.360755,0 -0.665878,-0.07788 -0.915563,-0.234027 -0.249678,-0.155954 -0.443919,-0.355474 -0.582707,-0.598366 -0.138795,-0.242705 -0.247989,-0.511431 -0.327767,-0.806183 -0.07976,-0.294751 -0.161425,-0.60195 -0.244581,-0.920841 z"
         inkscape:connector-curvature="0"
         style="fill:#000000;fill-opacity:1;stroke-width:0.18858" /><path
         id="path2"
         d="m 68.194174,-69.606012 c -0.68681,0.534061 -1.350992,0.934794 -1.992543,1.201637 -0.641738,0.267033 -1.361558,0.400543 -2.159065,0.400543 -0.728302,0 -1.368345,-0.144072 -1.919752,-0.431655 -0.551595,-0.287779 -0.976471,-0.678142 -1.274621,-1.170525 -0.298337,-0.492576 -0.447498,-1.026635 -0.447498,-1.60256 0,-0.776764 0.24609,-1.439252 0.738668,-1.987266 0.492383,-0.547828 1.168828,-0.915563 2.028939,-1.103015 0.180287,-0.04167 0.627785,-0.13521 1.342328,-0.280982 0.714336,-0.145399 1.326659,-0.278913 1.836582,-0.400547 0.509736,-0.121257 1.062848,-0.268729 1.659508,-0.442223 -0.03487,-0.749234 -0.185557,-1.298947 -0.452588,-1.649139 -0.267218,-0.350196 -0.820517,-0.525385 -1.659702,-0.525385 -0.721508,0 -1.264248,0.100512 -1.628395,0.301728 -0.364341,0.201213 -0.676437,0.502943 -0.936488,0.905377 -0.260246,0.402241 -0.443926,0.667578 -0.551602,0.796 -0.10768,0.128422 -0.338125,0.192544 -0.691907,0.192544 -0.319077,0 -0.594783,-0.102218 -0.827302,-0.307013 -0.23234,-0.204423 -0.348499,-0.46655 -0.348499,-0.785628 0,-0.499364 0.176887,-0.984958 0.530661,-1.456788 0.353782,-0.471641 0.905191,-0.860118 1.654426,-1.165245 0.749235,-0.305122 1.681957,-0.457872 2.798919,-0.457872 1.248585,0 2.23016,0.147472 2.944689,0.442223 0.714342,0.294753 1.218989,0.7613 1.513925,1.399461 0.294757,0.638343 0.442229,1.484509 0.442229,2.538862 0,0.665881 -0.0014,1.231247 -0.005,1.695909 -0.0036,0.464854 -0.0087,0.981754 -0.01567,1.550517 0,0.534247 0.08845,1.090936 0.265336,1.669883 0.176887,0.579318 0.265334,0.952147 0.265334,1.118658 0,0.291364 -0.137106,0.556692 -0.41111,0.796005 -0.274011,0.239498 -0.58441,0.358869 -0.931212,0.358869 -0.291357,0 -0.579329,-0.1371 -0.863705,-0.410917 -0.283996,-0.274197 -0.585726,-0.671347 -0.904622,-1.191456 z m -0.18726,-4.110126 c -0.416193,0.152753 -1.021543,0.313987 -1.815656,0.483714 -0.794307,0.170099 -1.344019,0.294941 -1.649141,0.374522 -0.30531,0.07996 -0.596667,0.235915 -0.874072,0.468248 -0.27759,0.23233 -0.416199,0.556498 -0.416199,0.972698 0,0.430153 0.162934,0.796191 0.488991,1.097732 0.326055,0.301918 0.752627,0.452594 1.279904,0.452594 0.561781,0 1.080381,-0.122954 1.555598,-0.369429 0.475036,-0.246103 0.823535,-0.563483 1.045688,-0.951954 0.256464,-0.430157 0.385074,-1.137715 0.385074,-2.122675 v -0.40545 z"
         inkscape:connector-curvature="0"
         style="fill:#000000;stroke-width:0.18858" /><path
         id="path3"
         d="m 80.753101,-69.30447 -2.507563,-4.120498 -1.539949,1.45679 v 2.257881 c 0,0.548016 -0.144078,0.969681 -0.431849,1.264245 -0.287971,0.294748 -0.619116,0.44222 -0.993824,0.44222 -0.436944,0 -0.780346,-0.145392 -1.030031,-0.436746 -0.249679,-0.291362 -0.374514,-0.721514 -0.374514,-1.290274 v -12.111616 c 0,-0.631179 0.121248,-1.111682 0.364141,-1.441133 0.242712,-0.329452 0.589507,-0.49427 1.040592,-0.49427 0.436945,0 0.783747,0.149353 1.040592,0.447502 0.256464,0.298334 0.385081,0.738672 0.385081,1.321387 v 6.88811 l 3.194373,-3.350334 c 0.395454,-0.416195 0.697184,-0.700576 0.90519,-0.853326 0.208193,-0.152564 0.461271,-0.228938 0.7596,-0.228938 0.353782,0 0.648539,0.112772 0.884444,0.338127 0.235726,0.225354 0.353782,0.508034 0.353782,0.847861 0,0.416196 -0.385088,0.971189 -1.155062,1.664789 l -1.508642,1.383998 2.913389,4.578181 c 0.214973,0.340011 0.369237,0.598367 0.463148,0.775067 0.09354,0.176887 0.140492,0.345102 0.140492,0.504641 0,0.451088 -0.123139,0.806375 -0.369237,1.066613 -0.246285,0.260055 -0.570644,0.389986 -0.972891,0.389986 -0.346989,0 -0.613833,-0.09354 -0.80128,-0.280798 -0.187447,-0.187261 -0.441086,-0.526705 -0.759982,-1.019465 z"
         inkscape:connector-curvature="0"
         style="fill:#000000;stroke-width:0.18858" /><path
         id="path4"
         d="m 93.010298,-73.081559 h -5.556347 c 0.0065,0.645322 0.136911,1.214084 0.390169,1.706467 0.253078,0.492577 0.589507,0.863705 1.009286,1.113388 0.419788,0.249676 0.882748,0.374519 1.38909,0.374519 0.33983,0 0.650229,-0.0398 0.93122,-0.119749 0.28079,-0.07959 0.553105,-0.204425 0.816735,-0.374525 0.263451,-0.16972 0.506344,-0.351891 0.728303,-0.546127 0.221959,-0.194053 0.509923,-0.457876 0.86369,-0.790723 0.145589,-0.124837 0.353782,-0.187256 0.6244,-0.187256 0.291357,0 0.527083,0.07976 0.707557,0.239307 0.180279,0.15973 0.270618,0.385081 0.270618,0.676439 0,0.256658 -0.100708,0.556691 -0.301737,0.899909 -0.201213,0.343406 -0.50464,0.672856 -0.910466,0.988539 -0.40564,0.315686 -0.915555,0.577624 -1.529389,0.785627 -0.61402,0.208195 -1.319879,0.311912 -2.117572,0.311912 -1.824527,0 -3.243039,-0.520103 -4.255712,-1.560505 -1.012866,-1.040588 -1.519209,-2.452117 -1.519209,-4.234962 0,-0.839185 0.124835,-1.618023 0.37452,-2.335953 0.249686,-0.718117 0.613833,-1.333459 1.09245,-1.846961 0.478617,-0.51332 1.068131,-0.906888 1.768888,-1.181086 0.700576,-0.274006 1.477531,-0.410914 2.330675,-0.410914 1.109803,0 2.061941,0.234218 2.856248,0.702275 0.7943,0.468246 1.389083,1.073404 1.784544,1.815845 0.395447,0.742255 0.59308,1.49828 0.59308,2.268063 0,0.714532 -0.204606,1.177687 -0.613825,1.38909 -0.409414,0.211964 -0.984961,0.317381 -1.727216,0.317381 z m -5.556347,-1.612746 h 5.15052 c -0.06937,-0.971004 -0.331332,-1.697606 -0.785623,-2.179996 -0.454486,-0.482011 -1.052849,-0.723019 -1.794917,-0.723019 -0.707557,0 -1.288574,0.2444 -1.742865,0.733579 -0.454292,0.488993 -0.73,1.212198 -0.827115,2.169436 z"
         inkscape:connector-curvature="0"
         style="fill:#000000;stroke-width:0.18858" /><path
         id="path5"
         d="m 108.55559,-79.3036 h 0.3121 v -1.706471 c 0,-0.457874 0.0119,-0.816934 0.0364,-1.076796 0.0241,-0.260239 0.0918,-0.483898 0.20272,-0.671159 0.11108,-0.19405 0.27081,-0.352079 0.47882,-0.47334 0.208,-0.121254 0.44033,-0.182168 0.69699,-0.182168 0.36056,0 0.68681,0.135213 0.97816,0.405827 0.19406,0.180473 0.31739,0.400735 0.36943,0.660601 0.0518,0.260239 0.0781,0.629482 0.0781,1.1081 v 1.935406 h 1.04059 c 0.40224,0 0.70907,0.09542 0.92084,0.286074 0.2114,0.191036 0.31739,0.435435 0.31739,0.733583 0,0.3815 -0.15087,0.648719 -0.4526,0.80128 -0.30172,0.152749 -0.73358,0.228939 -1.29536,0.228939 h -0.53048 v 5.223317 c 0,0.44392 0.0155,0.785625 0.0468,1.024935 0.0311,0.239497 0.11427,0.433738 0.24968,0.582715 0.13521,0.149354 0.35547,0.223848 0.66078,0.223848 0.16653,0 0.39168,-0.02941 0.67625,-0.08845 0.28438,-0.05903 0.50635,-0.08863 0.66588,-0.08863 0.22894,0 0.43525,0.09203 0.61912,0.275894 0.18367,0.183865 0.27571,0.411104 0.27571,0.681341 0,0.457875 -0.24969,0.808258 -0.74924,1.05096 -0.49955,0.242701 -1.21748,0.364152 -2.15378,0.364152 -0.88803,0 -1.56089,-0.149168 -2.01876,-0.447315 -0.45788,-0.298147 -0.75791,-0.711138 -0.89991,-1.238034 -0.14219,-0.527271 -0.21329,-1.231246 -0.21329,-2.112294 v -5.452255 h -0.37452 c -0.40941,0 -0.72151,-0.09712 -0.93649,-0.29136 -0.21518,-0.194048 -0.32267,-0.440523 -0.32267,-0.738857 0,-0.298146 0.11278,-0.542547 0.33832,-0.733581 0.22497,-0.191034 0.55274,-0.286265 0.98307,-0.286265 z"
         inkscape:connector-curvature="0"
         style="fill:#000000;stroke-width:0.18858" /><g
         id="g9"
         transform="matrix(0,0.34045984,-0.34045984,0,127.19746,-94.104281)"
         style="fill:#000000"><path
           id="path6"
           d="m 36.202861,10.493311 h 32.6098 V -7.9045028 c 0,-1.4667292 0.356712,-2.5928092 1.070137,-3.3776872 0.71287,-0.783769 1.609081,-1.176485 2.689188,-1.176485 1.100047,0 1.991827,0.387177 2.673679,1.16153 0.68296,0.774353 1.024162,1.9048647 1.024162,3.3926422 V 14.008366 c 0,1.976317 -0.438135,3.397627 -1.314406,4.263374 -0.875717,0.865747 -2.292041,1.298897 -4.247865,1.298897 H 36.203415 c -1.833965,0 -3.208747,-0.412656 -4.126007,-1.237414 -0.916705,-0.825312 -1.375335,-1.90985 -1.375335,-3.254721 0,-1.365366 0.453645,-2.470398 1.36038,-3.316204 0.905628,-0.845253 2.286502,-1.268987 4.140408,-1.268987 z"
           inkscape:connector-curvature="0"
           style="fill:#000000;fill-opacity:1;stroke-width:0.553901" /><path
           id="path7"
           d="m 72.327162,-38.925162 c 1.568647,2.016753 2.745686,3.968146 3.529455,5.851962 0.784324,1.884924 1.176486,3.999164 1.176486,6.34161 0,2.139165 -0.423181,4.019104 -1.267879,5.63871 -0.845253,1.62016 -1.991827,2.868098 -3.438062,3.743815 -1.446789,0.876271 -3.015436,1.314407 -4.707049,1.314407 -2.281517,0 -4.227371,-0.723395 -5.837006,-2.170184 -1.609082,-1.446234 -2.689189,-3.432523 -3.239766,-5.959418 -0.122412,-0.529529 -0.397147,-1.843936 -0.825312,-3.942666 -0.427058,-2.098176 -0.819219,-3.896138 -1.176485,-5.393885 -0.356158,-1.497194 -0.789309,-3.122339 -1.298898,-4.874881 -2.200647,0.102472 -3.815268,0.545592 -4.843862,1.329362 -1.028594,0.784877 -1.543167,2.410022 -1.543167,4.874881 0,2.119224 0.295229,3.71335 0.886241,4.782933 0.591012,1.070136 1.477253,1.986842 2.659277,2.750671 1.181471,0.764383 1.960809,1.303882 2.338016,1.62016 0.377206,0.316277 0.565532,0.993144 0.565532,2.032262 0,0.9372 -0.300214,1.747003 -0.90175,2.429962 -0.600429,0.682406 -1.370351,1.024163 -2.307551,1.024163 -1.466729,0 -2.893024,-0.519559 -4.278883,-1.558677 -1.385306,-1.039118 -2.526342,-2.659278 -3.422553,-4.859371 -0.896212,-2.200648 -1.344871,-4.940241 -1.344871,-8.220996 0,-3.667377 0.43315,-6.55043 1.298897,-8.64916 0.865747,-2.098176 2.236098,-3.580415 4.110498,-4.446162 1.874954,-0.865747 4.360307,-1.299451 7.457166,-1.299451 1.955823,0 3.616418,0.0055 4.981229,0.01551 1.365366,0.01052 2.883608,0.02548 4.554173,0.04597 1.5692,0 3.204316,-0.260333 4.904791,-0.779338 1.701583,-0.519559 2.796645,-0.779339 3.285739,-0.779339 0.855777,0 1.635115,0.402686 2.338015,1.207504 0.703454,0.804818 1.054074,1.716539 1.054074,2.735162 0,0.855777 -0.402686,1.701583 -1.20695,2.536866 -0.805372,0.834174 -1.971887,1.720415 -3.499545,2.657615 z m -12.072268,0.54947 c 0.44866,1.222459 0.922245,3.000481 1.420756,5.333511 0.499618,2.33303 0.866301,3.94765 1.100047,4.843862 0.234854,0.896765 0.69293,1.752542 1.375335,2.56733 0.682406,0.815342 1.634562,1.222459 2.857021,1.222459 1.263447,0 2.338569,-0.47857 3.224256,-1.436265 0.886795,-0.957694 1.329362,-2.210618 1.329362,-3.759324 0,-1.650071 -0.361143,-3.173298 -1.085092,-4.569128 -0.72284,-1.395276 -1.655055,-2.418884 -2.796091,-3.07138 -1.263447,-0.753305 -3.341683,-1.131065 -6.234707,-1.131065 z"
           inkscape:connector-curvature="0"
           style="fill:#000000;stroke-width:0.553901" /><path
           id="path8"
           d="m 35.468943,-61.907612 h 12.744149 c -1.629576,-1.569201 -2.877515,-3.168313 -3.743816,-4.798443 -0.865746,-1.629576 -1.298897,-3.646882 -1.298897,-6.051366 0,-2.770611 0.656926,-5.200574 1.971333,-7.28878 1.313853,-2.08876 3.219825,-3.707812 5.714594,-4.859371 2.496431,-1.150452 5.455923,-1.726509 8.878476,-1.726509 2.526341,0 4.843862,0.320709 6.952562,0.96268 2.109254,0.641417 3.937681,1.573632 5.485833,2.796091 1.548707,1.222459 2.745686,2.705251 3.590939,4.446715 0.844699,1.742572 1.267879,3.662392 1.267879,5.761122 0,1.282834 -0.152323,2.490338 -0.458076,3.621403 -0.305753,1.130512 -0.707331,2.093191 -1.207504,2.888039 -0.49851,0.794847 -1.013084,1.472268 -1.543167,2.032262 -0.529529,0.561101 -1.324377,1.298897 -2.383989,2.216157 h 0.824758 c 1.569201,0 2.75621,0.377206 3.561028,1.130511 0.804264,0.753859 1.20695,1.711554 1.20695,2.873083 0,1.182025 -0.402686,2.12421 -1.20695,2.82711 -0.804818,0.703454 -1.991827,1.054073 -3.561028,1.054073 h -36.4295 c -1.691059,0 -2.969462,-0.340649 -3.835209,-1.023608 -0.865747,-0.68296 -1.298897,-1.635116 -1.298897,-2.857575 0,-1.283388 0.412656,-2.2721 1.237968,-2.96503 0.825866,-0.692376 2.002905,-1.038564 3.530564,-1.038564 z m 24.785951,-0.397701 c 3.321189,0 5.873564,-0.758844 7.655463,-2.276532 1.78356,-1.517688 2.674233,-3.509515 2.674233,-5.974928 0,-2.098176 -0.911721,-3.906662 -2.735162,-5.424904 -1.822888,-1.517134 -4.436191,-2.276532 -7.838804,-2.276532 -2.200648,0 -4.095542,0.315723 -5.684683,0.947724 -1.589142,0.631447 -2.816586,1.527658 -3.682333,2.689188 -0.865747,1.160976 -1.298897,2.516372 -1.298897,4.064524 0,1.589142 0.432596,3.005466 1.298897,4.248419 0.865747,1.2424 2.119225,2.220588 3.758771,2.934012 1.6401,0.712871 3.590939,1.069029 5.852515,1.069029 z"
           inkscape:connector-curvature="0"
           style="fill:#000000;stroke-width:0.553901" /><path
           id="path9"
           d="m 66.122919,-120.18961 c 2.302566,0 4.273899,0.56055 5.913999,1.68109 1.6401,1.11999 2.883053,2.77615 3.728306,4.96628 0.844698,2.19012 1.267879,4.85438 1.267879,7.99223 0,2.99439 -0.458076,5.56172 -1.374782,7.701438 -0.916706,2.138611 -2.06328,3.718336 -3.438062,4.73696 -1.375336,1.019177 -2.755656,1.528212 -4.141516,1.528212 -0.916706,0 -1.701029,-0.325694 -2.352971,-0.978189 -0.652495,-0.651941 -0.978188,-1.477253 -0.978188,-2.475382 0,-0.876271 0.213805,-1.548707 0.641417,-2.017861 0.427611,-0.4686 1.028593,-0.916152 1.803501,-1.344871 1.487223,-0.855777 2.59724,-1.879387 3.331159,-3.071377 0.733364,-1.19144 1.100047,-2.81659 1.100047,-4.87488 0,-1.67057 -0.371668,-3.04036 -1.115556,-4.1105 -0.743889,-1.06958 -1.594127,-1.6041 -2.551821,-1.6041 -1.466729,0 -2.536866,0.55556 -3.208747,1.66558 -0.67299,1.11113 -1.314407,2.93955 -1.925913,5.48584 -0.712871,2.87308 -1.461745,5.21054 -2.246622,7.014041 -0.783769,1.802947 -1.817902,3.244197 -3.102398,4.324857 -1.282834,1.079553 -2.862005,1.619606 -4.736959,1.619606 -1.670565,0 -3.249736,-0.499065 -4.73696,-1.497194 -1.487777,-0.998683 -2.674233,-2.470397 -3.561028,-4.416805 -0.886241,-1.945299 -1.329362,-4.293835 -1.329362,-7.044505 0,-2.15911 0.22433,-4.09998 0.672436,-5.82206 0.448659,-1.72152 1.049642,-3.15778 1.802947,-4.30934 0.753859,-1.15046 1.589141,-2.02673 2.505847,-2.62826 0.916706,-0.60043 1.813471,-0.90175 2.689188,-0.90175 0.957695,0 1.742572,0.32126 2.353524,0.96268 0.611507,0.64197 0.916152,1.55424 0.916152,2.73516 0,0.85577 -0.24427,1.58415 -0.733364,2.18514 -0.489095,0.60098 -1.222459,1.28837 -2.200648,2.06272 -0.814788,0.632 -1.466729,1.37534 -1.955824,2.23112 -0.489094,0.85577 -0.733364,2.0173 -0.733364,3.48403 0,1.50827 0.321262,2.76064 0.962679,3.75933 0.641971,0.99813 1.441804,1.49719 2.399498,1.49719 0.875718,0 1.594127,-0.36668 2.154674,-1.10005 0.560548,-0.73336 1.024163,-1.72152 1.390845,-2.96447 0.366683,-1.24296 0.814788,-2.95451 1.344871,-5.13466 0.631447,-2.58783 1.385306,-4.70151 2.261023,-6.34161 0.876271,-1.6401 1.910404,-2.88306 3.102398,-3.72831 1.193657,-0.84415 2.553483,-1.26733 4.081695,-1.26733 z"
           inkscape:connector-curvature="0"
           style="fill:#000000;stroke-width:0.553901" /></g><g
         id="g16"
         transform="matrix(0.18858096,0,0,0.18858096,35.035252,-162.71711)"
         style="fill:#000000"><path
           id="path10"
           d="M 348.10486,394.94204"
           inkscape:connector-curvature="0"
           style="fill:#000000" /><path
           id="path11"
           d="M 348.49386,491.12504"
           inkscape:connector-curvature="0"
           style="fill:#000000" /><g
           transform="translate(10.20086,-82.073963)"
           id="g13"
           style="fill:#000000"><g
             id="g12"
             style="fill:#000000"><path
               d="m 329.085,559.977 c -0.55,0 -1.1,0 -2.089,0 0,-2.374 0,-4.65 0,-7.025 0.22,-9.202 -3.411,-17.316 -8.8,-24.936 -7.15,-10.391 -7.92,-21.176 -1.43,-31.962 5.06,-8.411 13.089,-13.26 23.98,-13.062 8.58,0.198 15.4,4.156 20.57,10.192 8.689,10.291 9.019,24.837 0.33,35.623 -4.4,5.542 -7.261,11.578 -9.13,18.01 -0.99,3.266 -0.621,6.88 -0.99,10.291 -0.11,0.989 -0.046,1.868 -0.164,2.886 -0.989,0 -2.586,-0.017 -3.577,-0.017 -6.159,0 -12.43,0 -18.7,0 z"
               inkscape:connector-curvature="0"
               id="path12"
               style="fill:#000000" /></g></g><g
           id="g14"
           transform="translate(10.20086,-82.073963)"
           style="fill:#000000"><path
             style="fill:#000000"
             inkscape:connector-curvature="0"
             d="m 330.964,581.524 c 1.522,2.737 4.637,4.618 8.242,4.618 4.735,0 8.631,-3.239 9.17,-7.412 z"
             id="path13" /></g><g
           id="g15"
           transform="translate(10.20086,-82.073963)"
           style="fill:#000000"><path
             style="fill:#000000"
             inkscape:connector-curvature="0"
             d="m 328.344,565.565 c -1.742,0.342 -3.076,1.697 -2.976,2.976 0.101,1.277 1.561,2.006 3.257,1.655 7.037,-1.448 14.165,-2.464 21.332,-2.972 1.754,-0.126 3.275,-1.202 3.372,-2.43 0.097,-1.228 -1.301,-2.175 -3.1,-2.063 -7.348,0.456 -14.661,1.421 -21.885,2.834 z"
             id="path14" /><path
             style="fill:#000000"
             inkscape:connector-curvature="0"
             d="m 328.846,573.812 c -1.661,0.357 -2.927,1.727 -2.826,3.004 0.101,1.277 1.494,1.993 3.109,1.627 7.97,-1.809 12.068,-2.471 20.344,-3.221 1.677,-0.151 3.134,-1.249 3.231,-2.477 0.097,-1.228 -1.239,-2.149 -2.959,-2.013 -8.492,0.68 -12.702,1.315 -20.899,3.08 z"
             id="path15" /></g></g></g><text
       xml:space="preserve"
       style="font-style:normal;font-variant:normal;font-weight:normal;font-stretch:normal;font-size:29.8136px;font-family:HGPSoeiKakupoptai;-inkscape-font-specification:'HGPSoeiKakupoptai, Normal';font-variant-ligatures:normal;font-variant-caps:normal;font-variant-numeric:normal;font-variant-east-asian:normal;text-orientation:upright;vector-effect:non-scaling-stroke;fill:#ff0000;stroke:#000000;stroke-width:1.39751;stroke-linecap:round;stroke-linejoin:round;-inkscape-stroke:hairline"
       x="-77.478622"
       y="39.996414"
       id="text17"
       transform="rotate(-90)"><tspan
         sodipodi:role="line"
         id="tspan17"
         style="font-style:normal;font-variant:normal;font-weight:normal;font-stretch:normal;font-size:29.8136px;font-family:HGPSoeiKakupoptai;-inkscape-font-specification:'HGPSoeiKakupoptai, Normal';font-variant-ligatures:normal;font-variant-caps:normal;font-variant-numeric:normal;font-variant-east-asian:normal;fill:#1a1a1a;stroke-width:1.39751"
         x="-77.478622"
         y="39.996414">FREE</tspan></text></g></svg>
